<svg width="319" height="319" viewBox="0 0 319 319" fill="none" xmlns="http://www.w3.org/2000/svg" xmlns:xlink="http://www.w3.org/1999/xlink">
<rect x="1.84569" y="1.75853" width="315.965" height="315.965" rx="94.6654" fill="url(#paint0_radial_101_230)"/>
<g filter="url(#filter0_f_101_230)">
<path d="M232.457 277.995C232.457 280.566 199.94 282.651 159.828 282.651C119.716 282.651 87.1996 280.566 87.1996 277.995C87.1996 275.424 119.716 273.34 159.828 273.34C199.94 273.34 232.457 275.424 232.457 277.995Z" fill="transparent"/>
</g>
<path d="M278.393 205.62C278.393 227.593 260.547 245.405 238.526 245.405H94.2702C64.9974 245.405 41.2635 221.723 41.2635 192.498C41.2635 163.281 64.9974 139.59 94.2702 139.59C96.8955 139.59 99.476 139.791 102.006 140.157C113.977 116.43 138.595 100.148 167.034 100.148C201.445 100.148 230.273 123.996 237.846 156.034C238.602 159.233 239.148 162.51 239.461 165.849V165.857C261.04 166.349 278.393 183.96 278.393 205.62Z" fill="#BAC7CB" fill-opacity="0.4"/>
<path fill-rule="evenodd" clip-rule="evenodd" d="M290.808 119.952C283.517 122.875 275.557 124.484 267.222 124.484C232.209 124.484 203.825 96.1006 203.825 61.0877C203.825 49.2802 207.053 38.2267 212.675 28.7614C189.342 38.1191 172.864 60.9479 172.864 87.6253C172.864 122.638 201.248 151.022 236.26 151.022C259.466 151.022 279.759 138.554 290.808 119.952Z" fill="#BAC7CB"/>
<g filter="url(#filter1_b_101_230)">
<path fill-rule="evenodd" clip-rule="evenodd" d="M290.808 119.952C283.517 122.875 275.557 124.484 267.222 124.484C232.209 124.484 203.825 96.1006 203.825 61.0877C203.825 49.2802 207.053 38.2267 212.675 28.7614C189.342 38.1191 172.864 60.9479 172.864 87.6253C172.864 122.638 201.248 151.022 236.26 151.022C259.466 151.022 279.759 138.554 290.808 119.952Z" fill="url(#paint1_linear_101_230)"/>
</g>
<g filter="url(#filter2_b_101_230)">
<path fill-rule="evenodd" clip-rule="evenodd" d="M287.797 122.382C281.333 124.551 274.413 125.726 267.222 125.726C231.523 125.726 202.584 96.7863 202.584 61.0877C202.584 50.3723 205.192 40.2631 209.809 31.3633C188.708 41.3014 174.106 62.7594 174.106 87.6253C174.106 121.953 201.933 149.78 236.26 149.78C257.711 149.78 276.625 138.914 287.797 122.382ZM288.908 120.678C282.143 123.141 274.839 124.484 267.222 124.484C232.209 124.484 203.825 96.1006 203.825 61.0877C203.825 50.0067 206.668 39.5898 211.664 30.5264C211.992 29.9322 212.329 29.3438 212.675 28.7614C212.039 29.0163 211.409 29.2812 210.783 29.5559C188.456 39.3657 172.864 61.6746 172.864 87.6253C172.864 122.638 201.248 151.022 236.26 151.022C258.732 151.022 278.473 139.33 289.732 121.698C290.099 121.122 290.458 120.54 290.808 119.952C290.179 120.203 289.546 120.446 288.908 120.678Z" fill="url(#paint2_linear_101_230)"/>
</g>
<path fill-rule="evenodd" clip-rule="evenodd" d="M290.808 119.952C283.517 122.875 275.557 124.484 267.222 124.484C232.209 124.484 203.825 96.1006 203.825 61.0877C203.825 49.2802 207.053 38.2267 212.675 28.7614C189.342 38.1191 172.864 60.9479 172.864 87.6253C172.864 122.638 201.248 151.022 236.26 151.022C259.466 151.022 279.759 138.554 290.808 119.952Z" fill="url(#pattern0)"/>
<g filter="url(#filter3_b_101_230)">
<path d="M278.393 205.62C278.393 227.593 260.547 245.405 238.526 245.405H94.2702C64.9974 245.405 41.2635 221.723 41.2635 192.498C41.2635 163.281 64.9974 139.59 94.2702 139.59C96.8955 139.59 99.476 139.791 102.006 140.157C113.977 116.43 138.595 100.148 167.034 100.148C201.445 100.148 230.273 123.996 237.846 156.034C238.602 159.233 239.148 162.51 239.461 165.849V165.857C261.04 166.349 278.393 183.96 278.393 205.62Z" fill="url(#paint3_linear_101_230)"/>
</g>
<g filter="url(#filter4_b_101_230)">
<path fill-rule="evenodd" clip-rule="evenodd" d="M102.712 141.514L101.828 141.386C99.3529 141.028 96.8319 140.832 94.2702 140.832C65.6809 140.832 42.5051 163.969 42.5051 192.498C42.5051 221.035 65.6808 244.164 94.2702 244.164H238.526C259.864 244.164 277.151 226.905 277.151 205.62C277.151 184.639 260.341 167.575 239.433 167.098L238.22 167.07V165.907C237.911 162.647 237.376 159.446 236.638 156.32C229.194 124.83 200.858 101.39 167.034 101.39C139.081 101.39 114.882 117.392 103.115 140.717L102.712 141.514ZM239.461 165.849V165.857C261.04 166.349 278.393 183.96 278.393 205.62C278.393 227.593 260.547 245.405 238.526 245.405H94.2702C64.9974 245.405 41.2635 221.723 41.2635 192.498C41.2635 163.281 64.9974 139.59 94.2702 139.59C96.8955 139.59 99.476 139.791 102.006 140.157C113.977 116.43 138.595 100.148 167.034 100.148C201.445 100.148 230.273 123.996 237.846 156.034C238.602 159.233 239.148 162.51 239.461 165.849Z" fill="#efefef99"/>
</g>
<path d="M278.393 205.62C278.393 227.593 260.547 245.405 238.526 245.405H94.2702C64.9974 245.405 41.2635 221.723 41.2635 192.498C41.2635 163.281 64.9974 139.59 94.2702 139.59C96.8955 139.59 99.476 139.791 102.006 140.157C113.977 116.43 138.595 100.148 167.034 100.148C201.445 100.148 230.273 123.996 237.846 156.034C238.602 159.233 239.148 162.51 239.461 165.849V165.857C261.04 166.349 278.393 183.96 278.393 205.62Z" fill="url(#pattern1)"/>
<path d="M108.926 51.7294L111.852 60.737H121.324L113.661 66.304L116.588 75.3116L108.926 69.7446L101.263 75.3116L104.19 66.304L96.5278 60.737H105.999L108.926 51.7294Z" fill="url(#paint5_radial_101_230)"/>
<path d="M102.408 100.769L103.871 105.273H108.607L104.776 108.056L106.239 112.56L102.408 109.777L98.5768 112.56L100.04 108.056L96.209 105.273H100.945L102.408 100.769Z" fill="url(#paint6_radial_101_230)"/>
<path d="M62.9898 91.4578L65.9165 100.465H75.3877L67.7253 106.032L70.6521 115.04L62.9898 109.473L55.3275 115.04L58.2542 106.032L50.5919 100.465H60.063L62.9898 91.4578Z" fill="url(#paint7_radial_101_230)"/>
<rect x="1.84569" y="1.75853" width="315.965" height="315.965" rx="94.6654" stroke="url(#paint8_linear_101_230)" stroke-width="1.86227"/>
<defs>
<filter id="filter0_f_101_230" x="72.3014" y="258.441" width="175.053" height="39.1077" filterUnits="userSpaceOnUse" color-interpolation-filters="sRGB">
<feFlood flood-opacity="0" result="BackgroundImageFix"/>
<feBlend mode="normal" in="SourceGraphic" in2="BackgroundImageFix" result="shape"/>
<feGaussianBlur stdDeviation="7.44908" result="effect1_foregroundBlur_101_230"/>
</filter>
<filter id="filter1_b_101_230" x="110.788" y="-33.3142" width="242.095" height="246.412" filterUnits="userSpaceOnUse" color-interpolation-filters="sRGB">
<feFlood flood-opacity="0" result="BackgroundImageFix"/>
<feGaussianBlur in="BackgroundImageFix" stdDeviation="31.0378"/>
<feComposite in2="SourceAlpha" operator="in" result="effect1_backgroundBlur_101_230"/>
<feBlend mode="normal" in="SourceGraphic" in2="effect1_backgroundBlur_101_230" result="shape"/>
</filter>
<filter id="filter2_b_101_230" x="110.788" y="-33.3142" width="242.095" height="246.412" filterUnits="userSpaceOnUse" color-interpolation-filters="sRGB">
<feFlood flood-opacity="0" result="BackgroundImageFix"/>
<feGaussianBlur in="BackgroundImageFix" stdDeviation="31.0378"/>
<feComposite in2="SourceAlpha" operator="in" result="effect1_backgroundBlur_101_230"/>
<feBlend mode="normal" in="SourceGraphic" in2="effect1_backgroundBlur_101_230" result="shape"/>
</filter>
<pattern id="pattern0" patternContentUnits="objectBoundingBox" width="1.1579" height="1.11701">
<use xlink:href="#image0_101_230" transform="scale(0.00526317 0.00507733)"/>
</pattern>
<filter id="filter3_b_101_230" x="10.2257" y="69.1106" width="299.205" height="207.333" filterUnits="userSpaceOnUse" color-interpolation-filters="sRGB">
<feFlood flood-opacity="0" result="BackgroundImageFix"/>
<feGaussianBlur in="BackgroundImageFix" stdDeviation="15.5189"/>
<feComposite in2="SourceAlpha" operator="in" result="effect1_backgroundBlur_101_230"/>
<feBlend mode="normal" in="SourceGraphic" in2="effect1_backgroundBlur_101_230" result="shape"/>
</filter>
<filter id="filter4_b_101_230" x="10.2257" y="69.1106" width="299.205" height="207.333" filterUnits="userSpaceOnUse" color-interpolation-filters="sRGB">
<feFlood flood-opacity="0" result="BackgroundImageFix"/>
<feGaussianBlur in="BackgroundImageFix" stdDeviation="15.5189"/>
<feComposite in2="SourceAlpha" operator="in" result="effect1_backgroundBlur_101_230"/>
<feBlend mode="normal" in="SourceGraphic" in2="effect1_backgroundBlur_101_230" result="shape"/>
</filter>
<pattern id="pattern1" patternContentUnits="objectBoundingBox" width="0.575916" height="0.940171">
<use xlink:href="#image0_101_230" transform="scale(0.0026178 0.0042735)"/>
</pattern>
<radialGradient id="paint0_radial_101_230" cx="0" cy="0" r="1" gradientUnits="userSpaceOnUse" gradientTransform="translate(159.828 159.741) rotate(90) scale(158.914)">
<stop stop-color="#fff9"/>
<stop offset="1" stop-color="transparent"/>
</radialGradient>
<linearGradient id="paint1_linear_101_230" x1="192.945" y1="46.4445" x2="306.841" y2="96.1318" gradientUnits="userSpaceOnUse">
<stop stop-color="white"/>
<stop offset="1" stop-color="white" stop-opacity="0"/>
</linearGradient>
<linearGradient id="paint2_linear_101_230" x1="163.155" y1="57.6403" x2="220.84" y2="83.0559" gradientUnits="userSpaceOnUse">
<stop stop-color="white"/>
<stop offset="1" stop-color="gray" stop-opacity="0"/>
</linearGradient>
<linearGradient id="paint3_linear_101_230" x1="78.8193" y1="125.599" x2="247.044" y2="245.405" gradientUnits="userSpaceOnUse">
<stop offset="0.416176" stop-color="white" stop-opacity="0.7"/>
<stop offset="1" stop-color="white" stop-opacity="0"/>
</linearGradient>
<linearGradient id="paint4_linear_101_230" x1="23.105" y1="138.426" x2="108.008" y2="199.493" gradientUnits="userSpaceOnUse">
<stop stop-color="white"/>
<stop offset="1" stop-color="gray" stop-opacity="0"/>
</linearGradient>
<radialGradient id="paint5_radial_101_230" cx="0" cy="0" r="1" gradientUnits="userSpaceOnUse" gradientTransform="translate(108.926 64.7653) rotate(90) scale(18.1445 18.1445)">
<stop stop-color="#FFD88B"/>
<stop offset="1" stop-color="#FFA900"/>
</radialGradient>
<radialGradient id="paint6_radial_101_230" cx="0" cy="0" r="1" gradientUnits="userSpaceOnUse" gradientTransform="translate(102.408 107.287) rotate(90) scale(9.07227)">
<stop stop-color="#FFD88B"/>
<stop offset="1" stop-color="#FFA900"/>
</radialGradient>
<radialGradient id="paint7_radial_101_230" cx="0" cy="0" r="1" gradientUnits="userSpaceOnUse" gradientTransform="translate(62.9901 104.494) rotate(90) scale(18.1445 18.1445)">
<stop stop-color="#FFD88B"/>
<stop offset="1" stop-color="#FFA900"/>
</radialGradient>
<linearGradient id="paint8_linear_101_230" x1="31.3817" y1="39.6992" x2="312.94" y2="312.853" gradientUnits="userSpaceOnUse">
<stop stop-color="transparent"/>
<stop offset="1" stop-color="transparent" stop-opacity="0"/>
</linearGradient>

</defs>
</svg>
