<svg width="318" height="319" viewBox="0 0 318 319" fill="none" xmlns="http://www.w3.org/2000/svg" xmlns:xlink="http://www.w3.org/1999/xlink">
<g clip-path="url(#clip0_101_213)">
<rect y="0.482056" width="317.827" height="317.827" rx="95.5965" fill="url(#paint0_radial_101_213)"/>
<path fill-rule="evenodd" clip-rule="evenodd" d="M250.781 199.56C238.502 204.485 225.096 207.194 211.057 207.194C152.09 207.194 104.287 159.391 104.287 100.424C104.287 80.5387 109.723 61.9231 119.191 45.9822C79.8946 61.7424 52.1438 100.19 52.1438 145.118C52.1438 204.086 99.9464 251.889 158.914 251.889C197.996 251.889 232.174 230.89 250.781 199.56Z" fill="#BAC7CB"/>
<g filter="url(#filter0_b_101_213)">
<path fill-rule="evenodd" clip-rule="evenodd" d="M250.781 199.56C238.502 204.485 225.096 207.194 211.057 207.194C152.09 207.194 104.287 159.391 104.287 100.424C104.287 80.5387 109.723 61.9231 119.191 45.9822C79.8946 61.7424 52.1438 100.19 52.1438 145.118C52.1438 204.086 99.9464 251.889 158.914 251.889C197.996 251.889 232.174 230.89 250.781 199.56Z" fill="url(#paint1_linear_101_213)"/>
</g>
<g filter="url(#filter1_b_101_213)">
<path fill-rule="evenodd" clip-rule="evenodd" d="M247.8 202.025C236.329 206.174 223.956 208.436 211.057 208.436C151.404 208.436 103.046 160.077 103.046 100.424C103.046 81.626 107.849 63.9465 116.295 48.5492C79.2403 64.9267 53.3853 102.005 53.3853 145.118C53.3853 203.4 100.632 250.647 158.914 250.647C196.237 250.647 229.036 231.272 247.8 202.025ZM248.883 200.3C237.126 204.755 224.376 207.194 211.057 207.194C152.09 207.194 104.287 159.391 104.287 100.424C104.287 81.2666 109.333 63.2878 118.167 47.7436C118.503 47.1529 118.844 46.5658 119.191 45.9822C118.557 46.2365 117.926 46.4967 117.298 46.7628C79.0063 62.9848 52.1438 100.915 52.1438 145.118C52.1438 204.086 99.9464 251.889 158.914 251.889C197.264 251.889 230.891 231.67 249.719 201.31C250.078 200.731 250.432 200.147 250.781 199.56C250.151 199.813 249.519 200.059 248.883 200.3Z" fill="url(#paint2_linear_101_213)"/>
</g>
<path fill-rule="evenodd" clip-rule="evenodd" d="M250.781 199.56C238.502 204.485 225.096 207.194 211.057 207.194C152.09 207.194 104.287 159.391 104.287 100.424C104.287 80.5387 109.723 61.9231 119.191 45.9822C79.8946 61.7424 52.1438 100.19 52.1438 145.118C52.1438 204.086 99.9464 251.889 158.914 251.889C197.996 251.889 232.174 230.89 250.781 199.56Z" fill="url(#pattern0)"/>
<g filter="url(#filter2_f_101_213)">

</g>
<g opacity="0.5" filter="url(#filter3_b_101_213)">
<path d="M0.000244141 162.5H317.828V318.309H0.000244141V162.5Z" fill="url(#paint3_linear_101_213)" fill-opacity="0.2"/>
</g>
<path d="M0.000244141 162.5H317.828V318.309H0.000244141V162.5Z" fill="url(#pattern1)"/>
<path d="M236.508 59.454L239.435 68.4616H248.906L241.244 74.0285L244.171 83.0361L236.508 77.4691L228.846 83.0361L231.773 74.0285L224.11 68.4616H233.581L236.508 59.454Z" fill="url(#paint4_radial_101_213)"/>
<path d="M229.99 108.494L231.454 112.998H236.189L232.358 115.781L233.822 120.285L229.99 117.501L226.159 120.285L227.623 115.781L223.792 112.998H228.527L229.99 108.494Z" fill="url(#paint5_radial_101_213)"/>
<path d="M190.572 99.1824L193.499 108.19H202.97L195.308 113.757L198.234 122.765L190.572 117.198L182.91 122.765L185.837 113.757L178.174 108.19H187.645L190.572 99.1824Z" fill="url(#paint6_radial_101_213)"/>
</g>
<rect x="0.931135" y="1.41319" width="315.965" height="315.965" rx="94.6654" stroke="url(#paint7_linear_101_213)" stroke-width="1.86227"/>
<defs>
<filter id="filter0_b_101_213" x="-9.93186" y="-16.0934" width="322.788" height="330.058" filterUnits="userSpaceOnUse" color-interpolation-filters="sRGB">
<feFlood flood-opacity="0" result="BackgroundImageFix"/>
<feGaussianBlur in="BackgroundImageFix" stdDeviation="31.0378"/>
<feComposite in2="SourceAlpha" operator="in" result="effect1_backgroundBlur_101_213"/>
<feBlend mode="normal" in="SourceGraphic" in2="effect1_backgroundBlur_101_213" result="shape"/>
</filter>
<filter id="filter1_b_101_213" x="-9.93186" y="-16.0934" width="322.788" height="330.058" filterUnits="userSpaceOnUse" color-interpolation-filters="sRGB">
<feFlood flood-opacity="0" result="BackgroundImageFix"/>
<feGaussianBlur in="BackgroundImageFix" stdDeviation="31.0378"/>
<feComposite in2="SourceAlpha" operator="in" result="effect1_backgroundBlur_101_213"/>
<feBlend mode="normal" in="SourceGraphic" in2="effect1_backgroundBlur_101_213" result="shape"/>
</filter>
<pattern id="pattern0" patternContentUnits="objectBoundingBox" width="0.687518" height="0.663246">
<use xlink:href="#image0_101_213" transform="scale(0.00312508 0.00301475)"/>
</pattern>
<filter id="filter2_f_101_213" x="71.3872" y="263.062" width="175.053" height="39.1077" filterUnits="userSpaceOnUse" color-interpolation-filters="sRGB">
<feFlood flood-opacity="0" result="BackgroundImageFix"/>
<feBlend mode="normal" in="SourceGraphic" in2="BackgroundImageFix" result="shape"/>
<feGaussianBlur stdDeviation="7.44908" result="effect1_foregroundBlur_101_213"/>
</filter>
<filter id="filter3_b_101_213" x="-31.0376" y="131.462" width="379.903" height="217.886" filterUnits="userSpaceOnUse" color-interpolation-filters="sRGB">
<feFlood flood-opacity="0" result="BackgroundImageFix"/>
<feGaussianBlur in="BackgroundImageFix" stdDeviation="15.5189"/>
<feComposite in2="SourceAlpha" operator="in" result="effect1_backgroundBlur_101_213"/>
<feBlend mode="normal" in="SourceGraphic" in2="effect1_backgroundBlur_101_213" result="shape"/>
</filter>
<pattern id="pattern1" patternContentUnits="objectBoundingBox" width="0.429688" height="0.876494">
<use xlink:href="#image0_101_213" transform="scale(0.00195312 0.00398406)"/>
</pattern>
<radialGradient id="paint0_radial_101_213" cx="0" cy="0" r="1" gradientUnits="userSpaceOnUse" gradientTransform="translate(158.914 159.396) rotate(90) scale(158.914)">
<stop stop-color="#fff6"/>
<stop offset="1" stop-color="transparent"/>
</radialGradient>
<linearGradient id="paint1_linear_101_213" x1="85.9636" y1="75.7635" x2="277.783" y2="159.446" gradientUnits="userSpaceOnUse">
<stop stop-color="white"/>
<stop offset="1" stop-color="transparent" stop-opacity="0"/>
</linearGradient>
<linearGradient id="paint2_linear_101_213" x1="35.7916" y1="94.619" x2="132.943" y2="137.423" gradientUnits="userSpaceOnUse">
<stop stop-color="transparent"/>
<stop offset="1" stop-color="transparent" stop-opacity="0"/>
</linearGradient>
<linearGradient id="paint3_linear_101_213" x1="158.914" y1="165.293" x2="158.914" y2="321.413" gradientUnits="userSpaceOnUse">
<stop stop-color="transparent"/>
<stop offset="1" stop-color="transparent"/>
</linearGradient>
<radialGradient id="paint4_radial_101_213" cx="0" cy="0" r="1" gradientUnits="userSpaceOnUse" gradientTransform="translate(236.509 72.4899) rotate(90) scale(18.1445 18.1445)">
<stop stop-color="#FFD88B"/>
<stop offset="1" stop-color="#FFA900"/>
</radialGradient>
<radialGradient id="paint5_radial_101_213" cx="0" cy="0" r="1" gradientUnits="userSpaceOnUse" gradientTransform="translate(229.991 115.012) rotate(90) scale(9.07227)">
<stop stop-color="#FFD88B"/>
<stop offset="1" stop-color="#FFA900"/>
</radialGradient>
<radialGradient id="paint6_radial_101_213" cx="0" cy="0" r="1" gradientUnits="userSpaceOnUse" gradientTransform="translate(190.572 112.218) rotate(90) scale(18.1445 18.1445)">
<stop stop-color="#FFD88B"/>
<stop offset="1" stop-color="#FFA900"/>
</radialGradient>
<linearGradient id="paint7_linear_101_213" x1="30.4671" y1="39.3539" x2="312.025" y2="312.507" gradientUnits="userSpaceOnUse">
<stop stop-color="transparent"/>
<stop offset="1" stop-color="white" stop-opacity="0"/>
</linearGradient>
<clipPath id="clip0_101_213">
<rect y="0.482056" width="317.827" height="317.827" rx="95.5965" fill="transparent"/>
</clipPath>
</defs>
</svg>
